<svg id="bacon" xmlns="http://www.w3.org/2000/svg" viewBox="0 0 53.07 50.63"><defs><style>.cls-1{fill:#f7a5ad;}.cls-2{fill:none;stroke:#95203d;stroke-miterlimit:10;stroke-width:2.37px;} #striped_bacon { cursor: pointer; }
#striped_bacon:hover { fill: #E06C5D !important; } </style></defs><path id="striped_bacon" class="cls-1" d="M10.94,1.18S2.32,7.23,8.31,26c0,0,8.49,8.84,6.34,16.13,0,0-.6,6.28-2.87,6.78l-5-.48s8.15-6.7,3.48-13.45-10.65-14.32-9-19.89S2.8,3.37,6.39,1.18Zm0,16.16c-.53,3.11,1.76,9.5,5.69,15.23s1.71,16.37,1.71,16.37H30.19c1.4-12.78-1.41-17.35-1.41-17.35s-4.41-3.77-6.86-13.76S26.54,1.18,26.54,1.18H15C10.56,9.26,11.51,14.23,11,17.34ZM27.17,16c-.19,4.75.37,9.67,5.13,14.41s4,18.5,4,18.5l6.84.78L41.71,32.86a26.61,26.61,0,0,1-8.53-17C32.3,5.23,38.29,1.18,38.29,1.18H30.58C26.92,8.77,27.37,11.28,27.17,16Z"/><path id="lining_bacon" class="cls-2" d="M5.8,1.18H47.42S37,12,45.1,24.34c0,0,13.58,9.24,2.32,25.1H5.8s10.65-9.7,1-19.71S2,3.89,5.8,1.18Zm16.41,0s-12.1,13.31-.55,26.5,1.39,21.76,1.39,21.76"/></svg>
