<svg id="buscuit" xmlns="http://www.w3.org/2000/svg" viewBox="0 0 46.68 60.31"><defs><style>.cls-1{fill:#eea9ab;}.cls-2,.cls-3{fill:none;stroke:#95203d;stroke-miterlimit:10;}.cls-2{stroke-width:3px;}.cls-3{stroke-width:2px;} #icing_buscuit { cursor: pointer; }
#icing_buscuit:hover { fill: #E06C5D !important; } </style></defs><path id="icing_buscuit" class="cls-1" d="M13.64,7.16s-7,.78-5.61,7.18A52.15,52.15,0,0,1,9.4,23.65S7.14,27.11,7.64,27.9,9.38,32,9.38,32L6.67,37.54A4.21,4.21,0,0,0,7.79,42.3C10.13,44.58,9,46.54,9,46.54L7.82,50.29,10,52.92S12,54.19,17.68,53s7.83.48,7.83.48,7.5,2.2,10.16-2.29S38.2,45,37.59,39.37a5.81,5.81,0,0,1,1.72-5.48c2.09-1.95-1.69-3.78-1.69-3.78s-.56-1.7,1.16-3.91,4.39-6.13,1.16-7.89-.74-6.84-.74-6.84S40.62,5.38,35,6.14,13.64,7.16,13.64,7.16Z"/><path id="lining_buscuit" class="cls-2" d="M8.76,1.57H40.45c5.09,0,4.63,5.79,4.63,5.79s.23,39.8,0,46.51-6.71,4.63-6.71,4.63-22.43.23-30.3,0-6.48-6.25-6.48-6.25V7.36C2.75.42,8.76,1.57,8.76,1.57ZM8.6,25.24a2.19,2.19,0,0,0-.47,3.45s3.13,2-.34,6.88,0,6.73,0,6.73,2.53,2.51,1,4.54A5,5,0,0,0,8,51.23s2.32,3.6,8,2.19S23.34,53,23.34,53,16,50.6,24.6,53.26s11.07-2,11.07-2,4.38-5,2.82-8.77a11.8,11.8,0,0,1-.94-6.57c3.28-3,2.19-4.23,1.72-4.54s-2.82-3.13-.16-5.48,2-6.42,2-6.42S36.92,18,39,12.25s-2.19-6.11-2.19-6.11-11.57.16-21.27.79-7.2,8.92-7.2,8.92S10.79,23.52,8.6,25.24Z"/><path id="sprinkles_buscui" class="cls-3" d="M17.68,20.47l2.09-4.31m6.9,7s.13-3.52,0-4.89m6.26,7.37.91,4.43m-7.17,3.78-3.9-3.74M29.28,40.8l4.11-4M26.67,48l5.48-1.43m-9.91-2.61V39.37m-3,9.52H14.43m-.79-11.35,2.22-3.65m1-7.69-3.72-1.3m6.13-13.43L15,10m11.17,2.47,4.56-3.26m.62,6.13,5.25,2.93"/></svg>
