<svg id="coffee" xmlns="http://www.w3.org/2000/svg" viewBox="0 0 42.65 59.52"><defs><style>.cls-1{fill:#e06c5d;}.cls-2{fill:#fef29f;}.cls-3{fill:#fea2b0;}.cls-4{fill:none;stroke:#952a31;stroke-miterlimit:10;stroke-width:2.48px;}   #holder_coffee { cursor: pointer; }
  #holder_coffee:hover { fill: #E06C5D !important; } </style></defs><polygon id="shadow_coffee" class="cls-1" points="29.16 8.95 30.15 19.34 27.06 19.34 24.84 58.27 34.05 57.54 34.05 47.83 37.25 47.05 39.21 25.76 35.83 25.1 37.65 19.34 41.1 17.63 38.64 7.18 33.92 7.18 33.02 1.4 25.6 2.47 29.16 8.95"/><polygon id="holder_coffee" class="cls-2" points="5.19 27.51 6.71 47.83 37.65 47.83 38.64 25.76 5.87 25.76 5.19 27.51"/><path id="highlight_coffee" class="cls-3" d="M5.19,29.87l.9,16.37C6.32,46.81,17.16,46,15.7,36,14.53,27.92,5.19,29.87,5.19,29.87Z"/><path id="lining_coffee" class="cls-4" d="M4.5,28.59c0-2.46,1.37-2.83,1.37-2.83v0H39.21L37.15,48.22H6.9a8.75,8.75,0,0,1-1-3.21M5.19,36v4M1.75,19.34H41.1L38.52,8H5.7ZM34.05,8,33,1.4,9.31,4.8V8M37.64,19.34l-.78,6.42M8.72,48.22l.59,10.05H34.05V48.22"/></svg>
