<svg id="cup" xmlns="http://www.w3.org/2000/svg" viewBox="0 0 43.15 45.06"><defs><style>.cls-1{fill:#e06c5d;}.cls-2{fill:#fea2b0;}.cls-3{fill:none;stroke:#95203d;stroke-miterlimit:10;stroke-width:2.59px;} #coffee_cup { cursor: pointer; } #coffee_cup:hover { fill: #FFCE66 !important; } </style></defs><polygon id="shadow_cup" class="cls-1" points="22.62 0.65 20.37 43.76 29.59 43.76 33.18 1.33 22.62 0.65"/><path id="coffee_cup" class="cls-2" d="M1.63,4.83s5.1-1.55,5.6,1,0,11.67,0,11.67,1.64,4.21,3.54,0c1-2.24.6-10.79.6-10.79s.24-2.5,1.49-1.23a11.82,11.82,0,0,1,.38,4.79s-.08,1.81,1.24,1.63.94-2.22.94-2.22-.45-3.79.49-4.07S30.68,2.16,30.68,2.16H1.41Z"/><path class="cls-3" d="M33.18,1.33,29.59,43.76H4.84L1.41,2.16Zm-2.5,29.46s10.19.36,11.13-10.44c.8-9.33-9-12.44-9-12.44M31.07,26.28c6.62.55,7.69-5,7.57-7.84s-6.41-5.91-6.41-5.91"/></svg>
