<svg id="cupcake" xmlns="http://www.w3.org/2000/svg" viewBox="0 0 43.33 57.3"><defs><style>.cls-1{fill:#ece8d6;}.cls-2{fill:#f08e8f;}.cls-3{fill:#e06c5d;}.cls-4{fill:none;stroke:#95203d;stroke-miterlimit:10;stroke-width:2.48px;}.cls-5{fill:#fffdff;} #body_cupcake { cursor: pointer; } #body_cupcake:hover { fill: #FEF29F !important; } </style></defs><path id="shadowicing_cupcake" class="cls-1" d="M17.73,9.06s-1.48,3.74,2,4,8.12,2.49,7,4.49c0,0-.05,5-2.63,6.86,0,0,7.54.75,8.67,7.24s-6,8.86-6,8.86l5.69,3.13,3.84-2.88s12.33-9.8.45-18.5l-3.37-2L34,13.77l-4.9-3.69-2.9-3.94-3.49-4.9L15,2.74Z"/><polygon id="body_cupcake" class="cls-2" points="6.85 41.28 35.25 41.28 34.02 56.06 8.68 56.06 6.85 41.28"/><polygon id="shadow_cupcake" class="cls-3" points="26.79 55.08 28.11 41.21 35.25 41.28 34.02 56.06 26.79 55.08"/><path id="lining_cupcake" class="cls-4" d="M18.06,24.44C14.51,26.5,8.68,26.5,8.68,26.5c-6.39-7.6,1.79-12.73,1.79-12.73s1.8,2.05,5.33-2.26-2-6.37-1.47-8,5.23-2.26,5.23-2.26c7.85.21,7.1,8.63,7.1,8.63s5.6-.41,7.36,3.9A6.75,6.75,0,0,1,32.93,21s7.93.82,9,9-6.73,11.29-6.73,11.29L34,56.06H8.68L6.85,41.28M8.68,26.5a8,8,0,0,0-7.43,8.62c.18,8.21,9.22,5.75,9.22,5.75"/><path id="highlight_cupcake" class="cls-5" d="M12.41,52.86s-1.61-5.57-.46-5.7,1.63,4.06,1.63,4.06S14,54.88,12.41,52.86Zm.14-7.22a1.11,1.11,0,0,0-1-1.64c-1.66-.17-.35,2-.35,2C11.82,46.25,12.55,45.64,12.55,45.64Z"/></svg>
