<svg id="icon_egg" xmlns="http://www.w3.org/2000/svg" viewBox="0 0 56.37 56.28"><defs><style>.cls-1{fill:#ece8d6;}.cls-2{fill:#95203d;}.cls-3{fill:#ff9f02;}.cls-4{fill:#feffff;} #yolk_egg { cursor: pointer; }
#yolk_egg:hover { fill: #F08E8F !important; } </style></defs><path id="shadow_egg" class="cls-1" d="M48.57,12.05s9.85,44.12-31,38.16C19.31,45.94,66.67,70.38,48.57,12.05Z"/><g id="lining_egg"><path class="cls-2" d="M14.94,3a4,4,0,0,1,.21,1.88,1.69,1.69,0,0,1-.52,1,1.65,1.65,0,0,1-1.08.36,4.1,4.1,0,0,1-1.82-.51,3.94,3.94,0,0,1-.22-1.89,1.58,1.58,0,0,1,.52-1,1.68,1.68,0,0,1,1.09-.36A4.13,4.13,0,0,1,14.94,3Z"/><path class="cls-2" d="M8.32,8.63A42.19,42.19,0,0,0,3.21,20.5,28.22,28.22,0,0,0,2.68,33,23.38,23.38,0,0,0,8.25,43.84a38.22,38.22,0,0,0,9.81,7.63L15.8,54.32a1.84,1.84,0,0,1,1.33-3.11h.24l.21,0,.25,0,.39.07.74.13,1.45.24c1,.16,1.92.27,2.89.38a44.69,44.69,0,0,0,5.77.29,29.67,29.67,0,0,0,11-2.15,18.58,18.58,0,0,0,8.35-6.81A26.89,26.89,0,0,0,52.4,33,46,46,0,0,0,53,27.2c0-1,.07-1.95.07-2.93,0-.24,0-.52,0-.71s0-.35-.06-.57c-.08-.44-.14-.88-.27-1.34a27.6,27.6,0,0,0-1.94-5.39c-.39-.88-.87-1.71-1.33-2.57s-1-1.66-1.58-2.42a27,27,0,0,0-8.62-7.7A31.68,31.68,0,0,0,28,0,29.2,29.2,0,0,1,39.88,2.33a27.17,27.17,0,0,1,9.86,7.5,30.91,30.91,0,0,1,5.95,11,15.4,15.4,0,0,1,.41,1.59c.06.27.09.62.14.93s0,.53,0,.8c.05,1,.08,2.06.08,3.1a46.78,46.78,0,0,1-.46,6.24,29.09,29.09,0,0,1-4.26,12,22.54,22.54,0,0,1-10,8.33,32.19,32.19,0,0,1-12.54,2.38,48.52,48.52,0,0,1-6.27-.37c-1-.12-2.06-.29-3.08-.48l-1.52-.3L17.51,55l-.35-.07-.12,0h.17a1.86,1.86,0,0,0,.57-.11,1.83,1.83,0,0,0,.71-3l-2.26,2.84A39,39,0,0,1,5.79,45.91,25.38,25.38,0,0,1,.22,33.42,28.62,28.62,0,0,1,1.8,20.08,37.86,37.86,0,0,1,8.32,8.63Z"/></g><ellipse id="yolk_egg" class="cls-3" cx="25.74" cy="24.05" rx="12.41" ry="13.03"/><g id="highlight_egg"><path class="cls-4" d="M17.34,27.7a3.48,3.48,0,0,1-3-1.56,5.06,5.06,0,0,1-.89-3.29,5.52,5.52,0,0,1,1.16-3,6.49,6.49,0,0,1,1.15-1.07,5.35,5.35,0,0,1,1.54-.66,8.31,8.31,0,0,1,.19,1.59,8.54,8.54,0,0,1,0,1.32c0,.8-.06,1.48-.08,2.1L17.3,25A13.74,13.74,0,0,0,17.34,27.7Z"/><path class="cls-4" d="M19.26,16.11a3.7,3.7,0,0,1-.15-1.85,1.55,1.55,0,0,1,.58-.95,1.65,1.65,0,0,1,1.14-.24,2.76,2.76,0,0,1,.8.22c.29.17.68.27.91.73a3.55,3.55,0,0,0,0,1,3,3,0,0,1-.05.71,1.24,1.24,0,0,1-.49.84,1.44,1.44,0,0,1-1,.19A4.3,4.3,0,0,1,19.26,16.11Z"/></g></svg>
