<svg id="icecream" xmlns="http://www.w3.org/2000/svg" viewBox="0 0 44.72 61"><defs> <style>.cls-1{fill:#ffce66;}.cls-2{fill:#ffaa3e;}.cls-3{fill:#f7a5ad;}.cls-4{fill:#f18a93;}.cls-5{fill:none;stroke:#96213c;stroke-miterlimit:10;stroke-width:3px;}.cls-6{fill:#fae8da;}  #scoops_icecream { cursor: pointer; } #scoops_icecream:hover { fill: #FF9F02 !important; } </style></defs><path id="cone_icecream" class="cls-1" d="M7,37.57v4.76l3.67,1.61L14.27,59.5h16.3l3.49-16.37,4-1.7-.64-5.8S16.7,38.72,7,37.57Z"/><polygon id="shadowcone_icecream" class="cls-2" points="26.64 58.78 28.95 44.47 28.37 38.53 38.06 35.55 38.06 41.43 32.95 44.47 30.04 58.78 26.64 58.78"/><path id="scoops_icecream" class="cls-3" d="M7.3,17.31S4.14,3.36,18.52,1.57,36.2,11,36.2,11L36,17.42s6.54,2.93,4.49,4.22-2.16,1.57-2.16,1.57a11.24,11.24,0,0,1,2.36,9.68l2.55,1.43-1.14.61H38.72l-1.65,1.56s-4.7.19-4.61-.48-1.4,2.79-2.92,2.73A18,18,0,0,1,25,37.32s-3.21,5.5-7.87.34c0,0-4.8,2.27-6.93-.76,0,0-5.61,2.79-3.55-3,0,0-9,2.73-2.44-3.2,0,0-.38-6.5,2.44-7.77C6.68,22.94.7,22,7.3,17.31Z"/><path id="shadow_icecream" class="cls-4" d="M22.36,1.55S36.51,7,33.2,18.14c0,0,4.12,1.23,1.91,3.64s-2,1.49-2,1.49,6,2.79,4.45,8.22-.21,2.45-.21,2.45l5.46.82s.64-1.46-2.11-1.87c0,0,.18-8.39-2.69-9.75,0,0,5.21-1.56-.42-5l-2.19-.81S38.86,6.9,30.68,3.53,22.36,1.55,22.36,1.55Z"/><path id="lining_icecream" class="cls-5" d="M7.3,17.31S4.82,1.78,19.72,1.51s16,7.9,16,7.9a11.17,11.17,0,0,1,0,7.9s7.91,3.05,3.72,5.13c-.54.27-1,.5-1.46.7-2.91,1.33-3.55,1.1-4.9.13,0,0-.62,7.07-7,2.36,0,0-5.12,6.52-8.38,0,0,0-6.21,5.41-7.3-2.36C10.41,23.27-1.08,24,7.3,17.31ZM6.44,23c0,.08-3.28,2.41-2.2,7.71,0,0-4.41,1.83-2,3.66a3.19,3.19,0,0,0,4.24,0s-2,5.2,3.79,2.53c0,0,2.68,4.34,6.93.76,0,0,4.57,5.57,7.87-.34,0,0,5.67,4.22,7.56-1.69,0,0,5.83,3.8,4.73-1.69a7.64,7.64,0,0,0,5.1.93c2.54-.62-1.75-2-1.75-2,1.58-6.72-2.26-9.95-2.26-9.95M7,37.57v4.76s20.21,5.38,31.1-.9V34.32M10.63,43.13,14.27,59.5h16.3l3.49-16.37"/><path id="highlight_icecream" class="cls-6" d="M10.92,8.51a7.13,7.13,0,0,1,6.46-4.6C22.53,3.55,10.92,8.51,10.92,8.51Z"/></svg>
