<svg id="logo_bunnyMagic" xmlns="http://www.w3.org/2000/svg" viewBox="0 0 53.56 76.18"><defs><style>.cls-1{fill:#921435;}.cls-2{fill:#832238;}.cls-3{fill:#ed8a90;}.cls-4,.cls-8{fill:none;stroke:#9f2142;stroke-miterlimit:10;}.cls-4{stroke-width:1.03px;}.cls-5{fill:#f6a5ad;}.cls-6{fill:#e7888b;}.cls-7{fill:#383838;}.cls-9{font-size:8px;fill:#fff;font-family:DINCondensed-Bold, DIN Condensed;font-weight:700;} </style></defs><path id="color_hat" class="cls-1" d="M.52,38.26s3.93-5.61,12.65-5.75,27-1,28.94.3,12.25,2.25,10.51,6.65L53,46.93l-7.22,4.55,1.54,14.36s.62,3-2,4.16A37.27,37.27,0,0,0,39,74.32l-8.43,1.33-9.56-.54-5.4-1.46-4.77-2.43L6.55,68.05s-2.08-1.67-.39-6a23.76,23.76,0,0,0,1.31-9.21L.52,46.75Z"/><g id="shadow_hat"><path class="cls-2" d="M25.4,54.89s.23-6.26,7.87-5.15S53,42.58,53,42.58v4.35s-6.31,4.22-7.9,4.84c0,0,3.48,14.14,2,16.07s-7.72,8.55-14.74,7.73c0,0-2.6-1.07-1.79-6.86,0,0,.57-4.56-6.21-4.31S7.43,59,7.29,57.62,25.4,54.89,25.4,54.89Z"/><path class="cls-3" d="M7.29,54.89S26.14,69.35,46,56V52.85s-11.14,3.8-19.6,2.75c0,0-14.86.31-18.88-3.52Z"/></g><g id="hat_lining"><ellipse class="cls-4" cx="26.78" cy="38.26" rx="26.26" ry="6.72"/><path class="cls-4" d="M.52,38.26v8.49s7,9.73,26.26,8.78S53,46.93,53,46.93V38.26"/><path class="cls-4" d="M7.53,52.08s-.72,9.66-1.37,10c0,0-2,3.61.69,6.34s11,6.25,11,6.25,16.92,3,23.34-1.44,5.93-5.37,5.93-5.37a19.06,19.06,0,0,0,0-6.1c-.49-4-1.33-10.26-1.33-10.26"/><path class="cls-4" d="M7.29,54.89s5.86,6.84,20.32,6.77S46.37,55.6,46.37,55.6"/><path class="cls-4" d="M31.15,55.18s5.43,1.5,14.86-2.33"/></g><path id="skin_bunny" class="cls-5" d="M16.71,41.09s-2,7.15,1.74,6.09,7-3,7.94-6.09l-.9,3s15.68-.9,15.59-3l-5-5.36,2.16-9.22s-2.2-9.43-4-9.14l4.42-7.63s1.21-8.39-5-7.6l-3.65,1.3A3.3,3.3,0,0,0,26.51.52C23.32.76,21.7,7.43,21.7,7.43l-.43,7.67S14.35,16.93,11.72,26c0,0-1,7.61,5,12.41Z"/><path id="shadow_bunny" class="cls-6" d="M14,35A18.49,18.49,0,0,1,17,38.51l.42.69a3.56,3.56,0,0,1-3.76,3.85,4.45,4.45,0,0,1-3.15-1.79C8.7,39.19,14,35,14,35Zm17.62-18.5c1.89,0,2.61-3.3,2.61-3.3s1.29-3.8-.91-4.63-3.11,3.92-3.11,3.92S29.67,16.49,31.57,16.49ZM27.12,8.85c-.4-1.14-1.41-3.21-3.16-1.14a3.53,3.53,0,0,0-.76,1.72c-.26,1.53-.45,4.37,1.62,4.46s2.48-2.54,2.5-3.77A3.67,3.67,0,0,0,27.12,8.85ZM36.23,20s.05,17.53-9.79,18.52c0,0,6.86,3.32,4.89,4,0,0,5.93.34,7.71-1.44L36.26,35.9l1.67-5.5S39.09,21.77,36.23,20Z"/><path id="eye_bunny" class="cls-7" d="M21,26.19s-.34-2.41,1.87-2.35c2,.05,1.68,2.22,1.68,2.22l0,3s-.11,1.3-1.84,1.42-1.67-1.9-1.67-1.9Z"/><path id="bunny_lining" class="cls-8" d="M26.44,38.47a6.92,6.92,0,0,1-4.21,7.66c-9.06,4.09-5.52-5-5.52-5,1.26-2.31-.52-3.26-.52-3.26S3,25.06,21.27,15.1l.51-9.25s3.28-9.68,8.83-3M25.4,43.54C39.12,44.52,41.14,41,41.14,41l-4.27-5,.43-3.56c3.42-8.82-3-15.09-3-15.09l4.27-7.11s2.7-7.83-4.84-8.12-6.83,13.1-6.83,13.1M14,35a6.76,6.76,0,0,0-3.7,4.45C9.12,43,16.2,42.9,16.2,42.9"/><text class="cls-9" transform="translate(8.06 67.02) rotate(35.3)">B</text><text class="cls-9" transform="translate(11.25 69.23) rotate(27.95)">U</text><text class="cls-9" transform="translate(14.65 71.02) rotate(20.95)">N</text><text class="cls-9" transform="translate(18.41 72.43) rotate(13.45)">N</text><text class="cls-9" transform="translate(22.34 73.32) rotate(5.87)">Y</text><text class="cls-9" transform="matrix(1, 0.01, -0.01, 1, 25.76, 73.62)"> </text><text class="cls-9" transform="matrix(0.99, -0.12, 0.12, 0.99, 27.73, 73.7)">M</text><text class="cls-9" transform="translate(32.69 73) rotate(-16.05)">A</text><text class="cls-9" transform="translate(36.28 71.94) rotate(-23.49)">G</text><text class="cls-9" transform="translate(39.67 70.4) rotate(-28.57)">I</text><text class="cls-9" transform="translate(41.36 69.51) rotate(-33.03)">C</text></svg>
