<svg id="milk" xmlns="http://www.w3.org/2000/svg" viewBox="0 0 45.67 56.2"><defs><style>.cls-1{fill:#f08e8f;}.cls-2{fill:#f2a0a8;}.cls-3{fill:none;stroke:#95203d;stroke-miterlimit:10;stroke-width:3px;}.cls-4{font-size:9.91px;fill:#febec0;font-family:ArialRoundedMTBold, Arial Rounded MT Bold;} #label_front { cursor: pointer; } #label_front:hover { fill: #E06C5D !important; } </style></defs><polygon id="label_side" class="cls-1" points="28.42 54.7 44.17 22.45 28.42 22.45 28.42 54.7"/><polygon id="label_front" class="cls-2" points="1.21 37.02 27.43 25.52 27.43 41.46 1.71 52.73 1.21 37.02"/><path id="lining_milk" class="cls-3" d="M28.42,22.45V54.7H1.5V22.45Zm0,32.25H44.17V22.45H28.42L36.3,11.82l7.87,10.63M36.3,11.82V3.93s3-2.06-4.44-2.06H11.52s-1.43-2.4-1.43,5v5Zm-26.21,0L1.5,22.45"/><text class="cls-4" transform="matrix(0.86, -0.36, 0.38, 0.92, 4.43, 47.2)">M</text><text class="cls-4" transform="translate(11.57 44.24) rotate(-22.47) scale(0.94 1)">I</text><text class="cls-4" transform="translate(14.25 43.13) rotate(-22.47) scale(0.94 1)">L</text><text class="cls-4" transform="translate(19.41 41) rotate(-22.47) scale(0.94 1)">K</text></svg>
