<svg id="icon_pancake" xmlns="http://www.w3.org/2000/svg" viewBox="0 0 52.09 45.47"><defs><style>.cls-1{fill:none;}.cls-1,.cls-3{stroke:#95203d;stroke-miterlimit:10;stroke-width:3px;}.cls-2{fill:#f7a5ad;}.cls-3{fill:#fff;} #icing_pancake { cursor: pointer; } #icing_pancake:hover { fill: #FEF29F !important; } </style></defs><path class="cls-1" d="M1.67,15c0-7.46,11-13.51,24.46-13.51S50.59,7.55,50.59,15s-11,13.5-24.46,13.5S1.67,22.47,1.67,15"/><path class="cls-1" d="M1.67,22.32S2.68,31,2.9,33.6s6.58,6.47,9.59,8.14S24.43,44,31.91,44s17.56-9.7,17.56-9.7l.77-17s-.77,8.53-.77,9S44.61,31,44.61,31C33,42,11.68,35.21,5.93,31S1.67,16.45,1.67,16.45"/><path class="cls-1" d="M19.49,12.88a54.07,54.07,0,0,0,5.12,3.57c3.86,2.47,3,1.61,3,1.61a34.45,34.45,0,0,0,4.72-2.65c3.62-2.24.46-3.28.46-3.28a36.13,36.13,0,0,0-4.44-2.94c-3.05-1.78-4.83,0-4.83,0L20.3,11A1.44,1.44,0,0,0,19.49,12.88Z"/><path id="icing_pancake" class="cls-2" d="M9,9s-2.5,7.86,3.44,9.22S20.89,22,20.89,22s3.59,4.55,8.8,5.11,7-2,7.37,3.15a28.9,28.9,0,0,1,0,7.2s2,2.14,3.1,0,.48-11.53.48-11.53-1.36-1.71,2.73-3c0,0,1.19-.31,1.19,5.61,0,0,4.31,3.29,4.91-2.18l1.12-10.81S48.72,6.37,20.29,4.34C20.29,4.34,11.73,4.94,9,9Z"/><path class="cls-3" d="M19.93,12.92l3.84-2.5a3.93,3.93,0,0,1,4-.42c2.18,1.06,4.94,2.35,4.94,2.35s2.84.8.4,2.45S28.73,18,28.73,18s-.21.34-2.42-.59S20,14.61,20,14.61,18.66,13.75,19.93,12.92Z"/></svg>
