<svg id="Layer_1" data-name="Layer 1" xmlns="http://www.w3.org/2000/svg" viewBox="0 0 59.22 52.85"><defs><style>.cls-1{fill:none;stroke:#95203d;stroke-miterlimit:10;stroke-width:3px;}.cls-2{fill:#f7a5ad;} #jelly_toast { cursor: pointer; } #jelly_toast:hover { fill: #FEF29F !important; } </style></defs><path id="lining_toast" class="cls-1" d="M3,28.44c-3.68-3.69.82-7.26.82-7.26S27.36,5.09,30,2.91s6.13-1.18,6.13-1.18,4.5,1.68,2.87,5,.95,4.37.95,4.37L56.69,23.57S39.78,36,36.23,39.36s-7,0-7,0l-17-12.26S6.63,32.14,3,28.44ZM1.5,24.92V36.34s3.22,6.39,10.59,1.18l17,12.26s2.09,3.53,7.14,0,19.5-14.45,19.5-14.45.82.51,1-3.69,0-8.07,0-8.07"/><path id="jelly_toast" class="cls-2" d="M17.11,20.55S19.28,17.9,28.18,16s7.9-.11,7.9-.11,2.8,3.15-4.26,3.75c0,0-3.17,1.17,1.24,2.61s9.66-1.74,9.66-1.74,11.76-1.52,4.47,3-11.33,4.91-11.33,4.91-14.36,5.28-10.49.18C28.22,24.92,23,23.59,20.61,23S14.51,22.32,17.11,20.55ZM32.4,32.34s-5.66.56-2.28,2.32S37.72,33,37.72,33s.46-4.23-2.91-2.15A5.05,5.05,0,0,1,32.4,32.34Z"/></svg>
